#!OML:ASF I:\Actors\actors\Patient Classification 2\Patient 1\Session 1\actor1.ASF
:FULLY-SPECIFIED
:DEGREES
470
root -0.572267 18.64 6.51395 2.39766 -9.16401 -4.33337
lowerback 3.43156 -0.796329 0.960751
upperback -2.65366 -0.965549 1.11218
thorax -4.66122 -0.492113 0.682192
lowerneck -9.57893 -7.2678 -4.74213
upperneck 11.8154 -10.0902 6.75186
head 5.72766 -4.68561 2.06075
rclavicle -4.11112e-014 7.15625e-015
rhumerus -33.1439 24.1856 -71.945
rradius 110.693
rwrist 8.19549
rhand -22.9393 -18.6971
rfingers 7.12502
rthumb 3.50172 -48.6481
lclavicle -4.11112e-014 7.15625e-015
lhumerus -46.6965 -2.54935 88.9285
lradius 46.6524
lwrist -1.53885
lhand -4.89058 -25.304
lfingers 7.12502
lthumb 20.8985 3.59029
rfemur 0 0 0
rtibia 0
rfoot 0 0
rtoes 0
lfemur -1.15596 -4.11117 -11.5245
ltibia 22.3879
lfoot -27.5638 17.1454
ltoes -54.5414
471
root -0.586542 18.6385 6.51136 2.29677 -8.63906 -4.27311
lowerback 3.45138 -0.683129 1.0261
upperback -2.59563 -0.810414 1.1235
thorax -4.61343 -0.4168 0.645332
lowerneck -10.1846 -6.78137 -4.46875
upperneck 12.0796 -9.3986 6.31387
head 5.8371 -4.34835 1.92287
rclavicle 2.48232e-014 -7.35503e-015
rhumerus -36.8764 23.7371 -74.0869
rradius 108.864
rwrist 7.1862
rhand -21.4836 -19.533
rfingers 7.12502
rthumb 4.90743 -49.4562
lclavicle 2.48232e-014 -7.35503e-015
lhumerus -46.3532 -2.66875 89.1374
lradius 46.56
lwrist -1.62067
lhand -4.83241 -25.2318
lfingers 7.12502
lthumb 20.9544 3.65633
rfemur 0 0 0
rtibia 0
rfoot 0 0
rtoes 0
lfemur -1.22404 -4.14658 -11.4532
ltibia 22.4234
lfoot -27.2605 16.8094
ltoes -54.7806
472
root -0.601022 18.6371 6.50979 2.22133 -8.11284 -4.17872
lowerback 3.46144 -0.577978 1.05058
upperback -2.55937 -0.669182 1.11173
thorax -4.58223 -0.347481 0.608727
lowerneck -10.7582 -6.32213 -4.27294
upperneck 12.352 -8.76134 6.05137
head 5.96368 -4.03113 1.84924
rclavicle -2.34069e-014 1.98785e-016
rhumerus -40.1762 22.8532 -75.9687
rradius 106.695
rwrist 6.53376
rhand -20.8685 -20.5149
rfingers 7.12502
rthumb 5.50127 -50.4235
lclavicle -2.34069e-014 1.98785e-016
lhumerus -45.964 -2.74364 89.2691
lradius 46.3312
lwrist -1.81896
lhand -4.76855 -25.4146
lfingers 7.12502
lthumb 21.0158 3.46671
rfemur 0 0 0
rtibia 0
rfoot 0 0
rtoes 0
lfemur -1.33016 -4.05711 -11.3935
ltibia 22.4519
lfoot -26.9125 16.4092
ltoes -55.0265
473
root -0.6152 18.6358 6.50763 2.12609 -7.58073 -4.08073
lowerback 3.50742 -0.508474 1.06303
upperback -2.52861 -0.57609 1.0864
thorax -4.57691 -0.301941 0.568913
lowerneck -11.314 -5.87576 -3.97064
upperneck 12.6751 -8.15228 5.70895
head 6.10013 -3.72976 1.73289
rclavicle 4.28629e-016 6.75868e-015
rhumerus -42.8986 21.5631 -77.4573
rradius 104.275
rwrist 7.08975
rhand -20.0041 -22.0989
rfingers 7.12502
rthumb 6.33588 -51.9842
lclavicle 4.28629e-016 6.75868e-015
lhumerus -45.5643 -2.72249 89.2993
lradius 46.0281
lwrist -2.04314
lhand -4.57295 -25.5553
lfingers 7.12502
lthumb 21.2037 3.30506
rfemur 0 0 0
rtibia 0
rfoot 0 0
rtoes 0
lfemur -1.40699 -4.15416 -11.3705
ltibia 22.4897
lfoot -26.7113 16.0936
ltoes -55.1011
474
root -0.629587 18.6346 6.50298 2.03314 -7.07887 -4.0717
lowerback 3.56228 -0.434656 1.15928
upperback -2.46883 -0.471452 1.09409
thorax -4.54685 -0.252656 0.515129
lowerneck -11.8681 -5.4771 -3.70371
upperneck 12.977 -7.60357 5.37525
head 6.23869 -3.46061 1.62093
rclavicle -1.02933e-014 1.53064e-014
rhumerus -45.2126 20.1194 -78.6987
rradius 101.807
rwrist 7.8096
rhand -19.2729 -23.6112
rfingers 7.12502
rthumb 7.04173 -53.4741
lclavicle -1.02933e-014 1.53064e-014
lhumerus -45.1536 -2.72659 89.3641
lradius 45.7337
lwrist -2.31885
lhand -4.48388 -25.5951
lfingers 7.12502
lthumb 21.2892 3.2556
rfemur 0 0 0
rtibia 0
rfoot 0 0
rtoes 0
lfemur -1.47063 -4.37853 -11.2763
ltibia 22.5391
lfoot -26.5737 15.8721
ltoes -55.1294
475
root -0.645831 18.6331 6.49881 1.97563 -6.65448 -4.1236
lowerback 3.56412 -0.312653 1.26202
upperback -2.38635 -0.302689 1.12234
thorax -4.46256 -0.171127 0.473558
lowerneck -12.3627 -5.11762 -3.38579
upperneck 13.1472 -7.11752 5.06652
head 6.33093 -3.22177 1.5066
rclavicle -1.6524e-015 2.10712e-014
rhumerus -47.0608 18.3636 -79.5852
rradius 99.6948
rwrist 6.59029
rhand -20.592 -24.0674
rfingers 7.12502
rthumb 5.76824 -53.9689
lclavicle -1.6524e-015 2.10712e-014
lhumerus -44.7284 -2.79652 89.4664
lradius 45.456
lwrist -2.62079
lhand -4.55828 -25.695
lfingers 7.12502
lthumb 21.2178 3.16377
rfemur 0 0 0
rtibia 0
rfoot 0 0
rtoes 0
lfemur -1.5519 -4.4626 -11.1022
ltibia 22.5896
lfoot -26.3686 15.6462
ltoes -55.2937
476
root -0.662959 18.6315 6.4968 1.92537 -6.27993 -4.10221
lowerback 3.55324 -0.167416 1.25467
upperback -2.32365 -0.110373 1.1175
thorax -4.39087 -0.0750434 0.458083
lowerneck -12.765 -4.78611 -2.88805
upperneck 13.2512 -6.67862 4.59207
head 6.37941 -3.01374 1.30977
rclavicle -2.21769e-015 9.74045e-015
rhumerus -48.6084 16.5105 -80.3427
rradius 97.3016
rwrist 6.56355
rhand -21.0455 -25.0056
rfingers 7.12502
rthumb 5.33037 -54.9186
lclavicle -2.21769e-015 9.74045e-015
lhumerus -44.4041 -2.89641 89.5112
lradius 45.3155
lwrist -3.2131
lhand -4.49564 -25.396
lfingers 7.12502
lthumb 21.2779 3.45602
rfemur 0 0 0
rtibia 0
rfoot 0 0
rtoes 0
lfemur -1.63123 -4.47701 -11.0105
ltibia 22.6395
lfoot -26.1701 15.4099
ltoes -55.473
477
root -0.677295 18.6319 6.49333 1.91346 -5.93117 -4.06305
lowerback 3.60203 -0.0430669 1.28653
upperback -2.34449 0.0583092 1.10073
thorax -4.43998 0.00734766 0.410734
lowerneck -13.0378 -4.47974 -2.51043
upperneck 13.368 -6.26427 4.16182
head 6.4204 -2.82308 1.14669
rclavicle 1.91082e-014 7.55382e-015
rhumerus -50.0103 14.7008 -80.9804
rradius 94.7531
rwrist 6.97067
rhand -20.5049 -24.8149
rfingers 7.12502
rthumb 5.8524 -54.714
lclavicle 1.91082e-014 7.55382e-015
lhumerus -44.284 -2.98652 89.5346
lradius 45.343
lwrist -4.01731
lhand -4.23174 -24.7334
lfingers 7.12502
lthumb 21.5314 4.08975
rfemur 0 0 0
rtibia 0
rfoot 0 0
rtoes 0
lfemur -1.75632 -4.53486 -10.9562
ltibia 22.6842
lfoot -25.998 15.2189
ltoes -55.577
478
root -0.686665 18.6345 6.48772 1.9931 -5.71716 -4.10064
lowerback 4.11233 0.145034 1.68764
upperback -2.75392 0.34581 0.945077
thorax -5.15417 0.129204 0.00290137
lowerneck -13.0334 -4.25457 -2.24435
upperneck 13.7207 -5.99439 3.96754
head 6.50855 -2.69042 1.06602
rclavicle 2.79541e-015 7.15625e-015
rhumerus -51.8822 12.719 -81.7285
rradius 92.1849
rwrist 7.91525
rhand -20.151 -24.2517
rfingers 7.12502
rthumb 6.19399 -54.1411
lclavicle 2.79541e-015 7.15625e-015
lhumerus -44.7444 -3.32719 89.5457
lradius 45.3599
lwrist -4.33537
lhand -4.08366 -24.3079
lfingers 7.12502
lthumb 21.6736 4.49896
rfemur 0 0 0
rtibia 0
rfoot 0 0
rtoes 0
lfemur -1.93956 -4.67678 -10.8712
ltibia 22.7092
lfoot -25.8982 15.2118
ltoes -55.6688
479
root -0.695982 18.637 6.48334 2.08173 -5.56128 -4.13066
lowerback 4.08193 0.284387 1.84779
upperback -2.79211 0.541289 0.924345
thorax -5.17304 0.219694 -0.124768
lowerneck -13.1772 -3.99621 -1.98747
upperneck 13.7685 -5.65981 3.76856
head 6.52413 -2.52906 0.991124
rclavicle -4.74598e-015 3.57812e-015
rhumerus -52.8121 10.9359 -82.0903
rradius 89.219
rwrist 10.3517
rhand -19.3717 -24.4289
rfingers 7.12502
rthumb 6.94639 -54.295
lclavicle -4.74598e-015 3.57812e-015
lhumerus -44.5995 -3.30266 89.5725
lradius 45.1892
lwrist -4.39964
lhand -4.10585 -24.0405
lfingers 7.12502
lthumb 21.6523 4.76879
rfemur 0 0 0
rtibia 0
rfoot 0 0
rtoes 0
lfemur -2.10335 -4.90185 -10.8209
ltibia 22.7309
lfoot -25.8852 15.2928
ltoes -55.7056
480
root -0.708679 18.6376 6.48195 2.08352 -5.27481 -4.09694
lowerback 3.55035 0.301265 1.64973
upperback -2.44051 0.537719 1.06598
thorax -4.50621 0.233157 0.136122
lowerneck -13.5217 -3.64863 -1.80187
upperneck 13.6448 -5.17502 3.53766
head 6.51752 -2.30107 0.930094
rclavicle 2.37299e-014 -7.95139e-016
rhumerus -52.7516 9.31832 -81.8897
rradius 86.7925
rwrist 10.1084
rhand -20.1129 -24.4956
rfingers 7.12502
rthumb 6.23085 -54.3839
lclavicle 2.37299e-014 -7.95139e-016
lhumerus -43.9108 -2.858 89.5958
lradius 44.8986
lwrist -4.53686
lhand -4.16028 -23.8125
lfingers 7.12502
lthumb 21.6 5.00282
rfemur 0 0 0
rtibia 0
rfoot 0 0
rtoes 0
lfemur -2.20545 -5.1444 -10.8043
ltibia 22.7717
lfoot -25.8857 15.237
ltoes -55.6616
481
root -0.721743 18.6384 6.48131 2.10432 -4.93584 -4.10905
lowerback 3.98876 0.398941 1.98111
upperback -2.81445 0.699351 0.893152
thorax -5.1391 0.292894 -0.244446
lowerneck -13.55 -3.41043 -1.57075
upperneck 14.2199 -4.91322 3.49151
head 6.69266 -2.15879 0.899891
rclavicle -4.4975e-015 2.18663e-015
rhumerus -53.9157 7.34826 -82.0877
rradius 84.4624
rwrist 10.2315
rhand -20.2448 -25.164
rfingers 7.12502
rthumb 6.10349 -55.0561
lclavicle -4.4975e-015 2.18663e-015
lhumerus -44.3777 -2.9823 89.4499
lradius 44.6459
lwrist -4.63184
lhand -4.12085 -23.688
lfingers 7.12502
lthumb 21.6379 5.12301
rfemur 0 0 0
rtibia 0
rfoot 0 0
rtoes 0
lfemur -2.34506 -5.29385 -10.7059
ltibia 22.8148
lfoot -25.814 15.101
ltoes -55.6827
482
root -0.733956 18.6396 6.48011 2.13833 -4.58927 -4.21868
lowerback 4.07921 0.437214 2.23304
upperback -2.93784 0.770569 0.866807
thorax -5.31569 0.31619 -0.419968
lowerneck -13.787 -3.17464 -1.32386
upperneck 14.6452 -4.62973 3.32846
head 6.85308 -2.01416 0.830076
rclavicle 1.04983e-014 1.05356e-014
rhumerus -54.47 5.67383 -82.0857
rradius 81.9951
rwrist 10.1299
rhand -20.0623 -25.9389
rfingers 7.12502
rthumb 6.2797 -55.8258
lclavicle 1.04983e-014 1.05356e-014
lhumerus -44.417 -2.74151 89.2839
lradius 44.2452
lwrist -4.95457
lhand -4.08931 -23.8149
lfingers 7.12502
lthumb 21.6682 4.9926
rfemur 0 0 0
rtibia 0
rfoot 0 0
rtoes 0
lfemur -2.49462 -5.37895 -10.4895
ltibia 22.8439
lfoot -25.6514 14.9557
ltoes -55.8177
483
root -0.746348 18.6399 6.47992 2.10185 -4.2517 -4.28958
lowerback 4.04765 0.441502 2.33321
upperback -2.92455 0.782976 0.89704
thorax -5.28284 0.31969 -0.44546
lowerneck -13.9537 -2.95992 -1.15268
upperneck 14.8602 -4.3543 3.18323
head 6.93734 -1.8799 0.780097
rclavicle -2.13818e-014 -6.95746e-015
rhumerus -54.738 4.12124 -81.9308
rradius 79.5351
rwrist 9.73826
rhand -19.9957 -26.712
rfingers 7.12502
rthumb 6.34398 -56.597
lclavicle -2.13818e-014 -6.95746e-015
lhumerus -44.2644 -2.33118 89.1335
lradius 43.7773
lwrist -5.40139
lhand -4.22412 -23.9792
lfingers 7.12502
lthumb 21.5387 4.84319
rfemur 0 0 0
rtibia 0
rfoot 0 0
rtoes 0
lfemur -2.55972 -5.4886 -10.3262
ltibia 22.8719
lfoot -25.5213 14.8048
ltoes -55.9142
484
root -0.75757 18.6398 6.48183 2.04939 -3.99283 -4.26201
lowerback 3.97304 0.465006 2.30892
upperback -2.90727 0.810121 0.89741
thorax -5.2217 0.334818 -0.432994
lowerneck -13.9883 -2.73541 -0.981739
upperneck 15.0141 -4.06732 3.05883
head 6.98024 -1.74081 0.74035
rclavicle -4.1869e-015 7.35503e-015
rhumerus -54.9938 2.55276 -81.7019
rradius 77.148
rwrist 9.28693
rhand -19.9423 -27.2856
rfingers 7.12502
rthumb 6.39555 -57.169
lclavicle -4.1869e-015 7.35503e-015
lhumerus -44.1085 -1.92941 88.9662
lradius 43.2433
lwrist -5.96547
lhand -4.02532 -23.4631
lfingers 7.12502
lthumb 21.7296 5.33731
rfemur 0 0 0
rtibia 0
rfoot 0 0
rtoes 0
lfemur -2.58434 -5.66597 -10.3068
ltibia 22.8985
lfoot -25.495 14.7477
ltoes -55.9277
